<svg xmlns="http://www.w3.org/2000/svg" width="75" height="75" viewBox="0 0 75 75"><defs><style>.a{fill:#003148;}.b{fill:#fff;}</style></defs><g transform="translate(-840 -617)"><rect class="a" width="75" height="75" rx="12" transform="translate(840 617)"/><g transform="translate(822.1 280.407)"><path class="b" d="M36.052,375.582H30.975V380.1H29V370.034h1.975v3.808h5.078v-3.808h1.975V380.1H36.052Z" transform="translate(0 -1.3)"/><path class="b" d="M172.545,376.146h2.586l-1.269-2.962Zm-3.761,3.949,4.372-10.061h1.363l4.372,10.061h-2.069l-.94-2.21h-4.09l-.94,2.21Z" transform="translate(-126.103 -1.3)"/><path class="b" d="M310.543,373.765a3.374,3.374,0,0,0,3.479,3.432,3.454,3.454,0,0,0,2.257-.8v-2.163h-2.633v-1.692h4.607v4.466a5.364,5.364,0,0,1-4.278,1.928,5.176,5.176,0,1,1-.047-10.343,5.219,5.219,0,0,1,3.714,1.457l-1.269,1.316a3.469,3.469,0,0,0-2.492-1.034A3.372,3.372,0,0,0,310.543,373.765Z" transform="translate(-252.206 0)"/><path class="b" d="M463.752,377.244a3.433,3.433,0,0,0,0-6.864,3.3,3.3,0,0,0-3.338,3.385A3.354,3.354,0,0,0,463.752,377.244Zm0-8.651a5.174,5.174,0,1,1-5.313,5.172A5.1,5.1,0,0,1,463.752,368.593Z" transform="translate(-387.408 0)"/></g></g></svg>